<?xml version="1.0" standalone="no"?>
<!DOCTYPE svg PUBLIC "-//W3C//DTD SVG 20010904//EN"
 "http://www.w3.org/TR/2001/REC-SVG-20010904/DTD/svg10.dtd">
<svg version="1.0" xmlns="http://www.w3.org/2000/svg"
 width="820.000000pt" height="699.000000pt" viewBox="0 0 820.000000 699.000000"
 preserveAspectRatio="xMidYMid meet">

<g transform="translate(0.000000,699.000000) scale(0.100000,-0.100000)"
fill="#000000" stroke="none">
<path d="M4145 3590 c-4 -6 -12 -7 -18 -4 -7 4 -8 3 -4 -1 4 -5 -28 -45 -72
-89 -45 -45 -81 -85 -81 -91 0 -5 -3 -10 -7 -10 -15 0 -33 -17 -28 -25 3 -5 1
-11 -5 -15 -5 -3 -10 0 -10 7 0 17 -129 -111 -141 -140 -5 -13 -13 -21 -18
-18 -11 7 -43 -29 -34 -38 5 -4 4 -6 -2 -5 -18 6 -53 -24 -47 -40 4 -10 1 -13
-10 -8 -10 3 -26 -6 -43 -23 -16 -16 -33 -26 -39 -23 -6 3 -8 2 -3 -2 4 -5 -7
-24 -25 -42 -18 -19 -32 -37 -30 -41 1 -4 -2 -7 -7 -7 -13 0 -26 -14 -26 -28
0 -7 -4 -12 -10 -12 -17 0 -36 -16 -30 -25 3 -5 0 -12 -6 -16 -8 -4 -9 -3 -5
4 4 7 3 12 -1 12 -13 0 -103 -94 -103 -108 0 -7 -6 -12 -13 -12 -19 0 -49 -35
-40 -45 5 -4 3 -5 -3 -2 -14 8 -47 -26 -37 -38 5 -4 3 -5 -3 -2 -6 4 -38 -18
-71 -48 -33 -30 -64 -51 -68 -47 -5 4 -5 1 -1 -6 5 -7 -5 -22 -23 -38 -17 -14
-29 -30 -25 -35 3 -5 -6 -13 -20 -19 -15 -5 -25 -15 -24 -22 2 -7 -3 -12 -10
-10 -7 1 -16 -8 -21 -20 -9 -24 -101 -118 -101 -104 0 4 18 25 40 46 22 21 40
42 40 46 0 5 -36 -27 -79 -71 -44 -43 -77 -83 -74 -88 3 -6 1 -7 -4 -4 -13 8
-46 -27 -36 -38 5 -4 2 -5 -5 -1 -14 8 -175 -141 -167 -154 3 -4 -5 -16 -18
-26 -21 -19 -21 -19 -7 1 15 19 15 19 -12 0 -15 -11 -26 -26 -25 -34 1 -7 -6
-15 -17 -17 -20 -3 -99 -74 -91 -82 2 -3 13 1 22 9 10 7 5 -1 -12 -19 -16 -18
-31 -28 -33 -22 -5 14 -42 -18 -42 -35 0 -7 -10 -15 -22 -18 -12 -4 -19 -9
-15 -13 4 -4 0 -15 -9 -25 -10 -11 -12 -19 -5 -24 6 -3 11 -15 11 -26 0 -10 5
-19 10 -19 6 0 10 -11 10 -25 0 -16 6 -25 15 -25 8 0 15 -9 15 -20 0 -11 5
-20 10 -20 6 0 10 -8 10 -19 0 -10 11 -27 25 -37 14 -10 25 -27 25 -37 0 -10
4 -15 10 -12 6 3 10 2 10 -2 0 -5 8 -19 18 -32 15 -21 33 -40 128 -143 66 -71
257 -232 304 -256 14 -7 43 -28 65 -47 22 -19 44 -35 49 -35 4 0 30 -16 56
-35 26 -19 51 -35 55 -35 3 0 25 -13 48 -28 23 -16 49 -32 57 -36 8 -4 33 -18
55 -31 115 -69 478 -240 645 -304 91 -35 90 -35 192 -76 36 -15 72 -25 78 -23
7 2 -36 37 -96 77 -102 69 -178 128 -249 193 -16 16 -33 28 -36 28 -11 0 -191
204 -243 275 -60 83 -67 95 -118 200 -22 44 -46 93 -54 108 -8 16 -14 37 -14
48 0 11 -4 27 -9 37 -16 30 -36 175 -35 252 0 78 19 202 35 232 5 10 9 32 9
49 0 17 7 37 15 45 8 9 15 29 15 45 0 16 5 29 10 29 6 0 10 13 10 29 0 16 7
34 15 41 8 7 15 23 15 36 0 13 5 24 10 24 6 0 10 13 10 29 0 16 7 34 15 41 8
7 15 23 15 36 0 13 5 24 10 24 6 0 10 14 10 30 0 18 6 33 15 36 8 4 15 13 15
20 0 8 7 26 16 39 9 13 13 29 9 35 -3 5 1 13 9 16 9 4 16 18 16 34 0 16 7 30
15 34 8 3 15 15 15 26 0 11 5 20 10 20 6 0 10 14 10 30 0 21 5 30 16 30 12 0
15 6 11 21 -3 12 0 22 9 26 8 3 14 16 14 29 0 14 7 27 15 30 8 4 15 17 15 31
0 13 4 21 10 18 6 -4 10 5 10 19 0 16 6 26 15 26 10 0 15 10 15 31 0 17 4 28
10 24 6 -4 10 5 10 20 0 14 7 28 15 31 8 4 15 15 15 25 0 11 6 22 14 25 8 3
12 12 9 20 -3 7 2 16 10 20 8 3 17 19 21 35 3 18 10 28 17 24 5 -4 10 -1 8 6
-3 27 1 40 11 34 6 -4 10 7 10 24 0 21 5 31 15 31 9 0 15 9 15 25 0 14 4 25 9
25 5 0 11 10 13 23 2 12 9 21 16 20 6 -2 12 5 12 15 0 24 39 101 41 82 1 -8 5
1 8 20 4 19 3 41 -3 48 -7 9 -5 12 5 10 8 -2 13 3 11 10 -1 8 2 11 7 8 10 -7
22 8 39 47 11 26 9 37 -3 17z m-274 -293 l-34 -32 29 37 c15 20 30 35 33 32 3
-2 -10 -19 -28 -37z m-41 -31 c0 -2 -8 -10 -17 -17 -16 -13 -17 -12 -4 4 13
16 21 21 21 13z m-410 -400 c0 -2 -8 -10 -17 -17 -16 -13 -17 -12 -4 4 13 16
21 21 21 13z m-40 -40 c0 -3 -4 -8 -10 -11 -5 -3 -10 -1 -10 4 0 6 5 11 10 11
6 0 10 -2 10 -4z m-880 -840 c0 -3 -4 -8 -10 -11 -5 -3 -10 -1 -10 4 0 6 5 11
10 11 6 0 10 -2 10 -4z"/>
<path d="M5042 3106 c-18 -7 -29 -16 -25 -20 5 -4 1 -7 -7 -6 -27 4 -41 0 -36
-9 3 -5 -1 -12 -10 -15 -10 -4 -13 -2 -9 7 4 6 0 4 -8 -5 -8 -10 -19 -18 -26
-18 -14 0 -49 -20 -75 -42 -20 -18 -31 -22 -55 -19 -8 2 -10 -2 -5 -10 4 -8 3
-10 -4 -5 -13 7 -72 -23 -72 -36 0 -4 -3 -7 -7 -7 -17 4 -73 -23 -67 -32 5 -8
0 -10 -34 -13 -7 -1 -17 -7 -21 -15 -5 -7 -14 -10 -20 -7 -6 4 -14 0 -17 -8
-3 -9 -14 -16 -24 -16 -10 0 -25 -6 -32 -12 -7 -7 -25 -19 -40 -27 -16 -8 -28
-23 -28 -33 0 -10 -7 -18 -15 -18 -8 0 -15 -8 -15 -18 0 -27 -30 -83 -41 -77
-5 4 -9 -5 -9 -20 0 -14 -6 -28 -14 -31 -8 -3 -12 -12 -9 -20 3 -7 -2 -17 -11
-20 -9 -3 -16 -17 -16 -30 0 -14 -7 -27 -15 -30 -8 -4 -15 -17 -15 -31 0 -13
-4 -21 -10 -18 -6 4 -10 -5 -10 -19 0 -16 -6 -26 -15 -26 -9 0 -15 -9 -15 -24
0 -13 -7 -29 -15 -36 -8 -7 -15 -21 -15 -31 0 -11 -4 -19 -10 -19 -5 0 -10 -8
-10 -19 0 -10 -7 -24 -15 -31 -8 -7 -15 -23 -15 -36 0 -13 -4 -24 -10 -24 -5
0 -10 -5 -10 -11 0 -6 -7 -27 -16 -47 -9 -21 -23 -53 -32 -72 -8 -19 -19 -43
-23 -52 -5 -10 -9 -28 -9 -41 0 -13 -5 -28 -11 -34 -12 -12 -31 -137 -31 -203
-1 -110 32 -261 78 -353 8 -16 14 -35 14 -43 0 -8 5 -14 10 -14 6 0 10 -7 10
-15 0 -13 66 -129 91 -158 5 -7 19 -25 30 -40 28 -37 33 -29 12 19 -25 57 -22
225 5 324 26 95 42 142 53 155 5 5 9 17 9 26 0 10 6 30 14 46 8 15 22 46 32
68 35 83 118 250 126 253 4 2 8 10 8 17 0 17 33 75 43 75 4 0 7 7 7 15 0 14
26 63 40 75 4 3 9 12 13 20 3 8 20 38 37 65 17 28 33 58 36 68 4 9 10 17 15
17 5 0 9 4 9 10 0 8 59 113 91 160 5 8 12 23 15 33 4 9 10 17 15 17 5 0 9 9 9
19 0 10 7 21 15 25 8 3 15 15 15 26 0 11 5 20 10 20 6 0 10 9 10 20 0 11 4 20
10 20 5 0 19 19 30 43 11 23 29 56 40 72 10 17 19 40 19 53 1 12 8 25 16 28 8
4 15 17 15 31 0 13 4 21 10 18 6 -3 10 3 10 14 0 10 3 27 6 36 5 13 8 14 15 3
6 -8 9 0 9 24 0 20 5 40 11 43 5 4 9 14 7 23 -2 10 5 22 17 29 25 15 11 15
-33 -1z"/>
<path d="M6032 2590 c0 -19 2 -27 5 -17 2 9 2 25 0 35 -3 9 -5 1 -5 -18z"/>
<path d="M5987 2569 c-9 -5 -22 -7 -27 -4 -6 3 -13 -1 -16 -10 -4 -9 -13 -14
-20 -11 -7 3 -19 -1 -26 -8 -14 -14 -20 -16 -44 -16 -9 0 -12 -5 -8 -12 4 -6
3 -8 -4 -5 -15 10 -43 -3 -35 -16 3 -5 2 -7 -4 -4 -11 7 -135 -42 -163 -64 -9
-8 -23 -15 -31 -17 -7 -2 -16 -7 -19 -10 -3 -4 -11 -7 -17 -8 -29 -2 -34 -4
-28 -13 5 -9 -13 -18 -54 -26 -34 -6 -121 -86 -121 -111 0 -8 -7 -14 -15 -14
-8 0 -15 -8 -15 -18 0 -9 -10 -28 -23 -42 -13 -14 -26 -33 -30 -43 -4 -10 -11
-15 -17 -12 -5 3 -10 -3 -10 -14 0 -12 -4 -21 -9 -21 -5 0 -11 -10 -13 -22 -2
-13 -9 -22 -16 -21 -6 2 -12 -3 -12 -10 0 -7 -11 -24 -25 -39 -14 -15 -25 -34
-25 -41 0 -8 -7 -17 -15 -21 -8 -3 -15 -11 -15 -19 0 -7 -11 -24 -25 -37 -14
-13 -25 -29 -25 -37 0 -7 -4 -13 -9 -13 -5 0 -12 -11 -15 -25 -4 -14 -11 -25
-16 -25 -6 0 -10 -7 -10 -15 0 -9 -7 -18 -15 -21 -8 -4 -15 -13 -15 -21 0 -7
-11 -26 -25 -41 -14 -15 -25 -32 -25 -39 0 -7 -4 -13 -9 -13 -5 0 -11 -8 -15
-17 -3 -10 -19 -40 -35 -68 -17 -27 -51 -93 -77 -145 -25 -52 -50 -103 -55
-112 -5 -10 -9 -26 -9 -37 0 -10 -7 -24 -15 -31 -8 -7 -15 -27 -15 -44 0 -18
-5 -37 -10 -42 -25 -25 -43 -343 -21 -381 8 -15 10 -13 17 12 9 37 24 62 88
145 60 78 339 361 402 409 45 34 299 274 338 320 12 14 38 42 59 63 20 21 37
42 37 46 0 5 12 20 28 34 15 15 38 42 52 62 14 20 35 49 47 64 13 15 23 30 23
34 0 4 6 13 13 20 16 18 32 44 57 93 11 22 29 54 40 70 10 17 19 40 19 53 1
12 8 25 16 28 8 4 15 17 15 29 0 13 5 27 10 30 6 3 10 20 10 36 0 17 6 32 15
35 11 4 15 21 15 56 0 30 4 47 10 43 6 -4 10 20 10 64 0 38 3 76 6 85 7 18 -3
20 -29 5z"/>
</g>
</svg>
